<?xml version="1.0" encoding="UTF-8" standalone="no"?>
<!-- Created with Inkscape (http://www.inkscape.org/) -->

<svg
   width="52.903889mm"
   height="52.440353mm"
   viewBox="0 0 52.903889 52.440353"
   version="1.1"
   id="svg571"
   inkscape:version="1.2 (dc2aedaf03, 2022-05-15)"
   sodipodi:docname="whale_tail.svg"
   xmlns:inkscape="http://www.inkscape.org/namespaces/inkscape"
   xmlns:sodipodi="http://sodipodi.sourceforge.net/DTD/sodipodi-0.dtd"
   xmlns="http://www.w3.org/2000/svg"
   xmlns:svg="http://www.w3.org/2000/svg">
  <sodipodi:namedview
     id="namedview573"
     pagecolor="#ffffff"
     bordercolor="#000000"
     borderopacity="0.25"
     inkscape:showpageshadow="2"
     inkscape:pageopacity="0.0"
     inkscape:pagecheckerboard="0"
     inkscape:deskcolor="#d1d1d1"
     inkscape:document-units="mm"
     showgrid="false"
     inkscape:zoom="0.61557941"
     inkscape:cx="110.46503"
     inkscape:cy="439.42341"
     inkscape:window-width="798"
     inkscape:window-height="872"
     inkscape:window-x="801"
     inkscape:window-y="1"
     inkscape:window-maximized="1"
     inkscape:current-layer="layer1" />
  <defs
     id="defs568" />
  <g
     inkscape:label="Layer 1"
     inkscape:groupmode="layer"
     id="layer1"
     transform="translate(-2.1503694,-3.0828857)">
    <path
       style="fill:#000000;stroke-width:0.0264583"
       d="m 16.902129,55.504334 c -3.05697,-0.243335 -5.623977,-1.373976 -7.5443788,-3.322929 -0.873631,-0.886621 -1.07876,-1.266947 -1.046443,-1.940187 0.0097,-0.202279 0.03177,-0.331396 0.08113,-0.474892 0.03728,-0.108398 0.0652,-0.198139 0.06202,-0.199433 -0.0032,-0.0013 -0.179873,-0.106344 -0.392671,-0.23345 -1.739996,-1.039309 -3.704057,-2.630738 -5.16453,-4.184684 -0.461821,-0.491379 -0.590178,-0.681762 -0.696207,-1.032645 -0.07682,-0.254233 -0.06472,-0.731893 0.02552,-1.007491 0.270705,-0.826696 1.108461,-1.322051 1.971582,-1.165773 0.240481,0.04354 0.551192,0.177126 0.727863,0.312931 0.06025,0.04631 0.198846,0.169143 0.307986,0.27295 0.669029,0.636338 1.972134,1.592683 3.026302,2.220997 2.6570538,1.583674 5.4449108,2.520241 8.2795768,2.781482 0.259154,0.02388 0.477025,0.03759 0.484158,0.03046 0.0071,-0.0071 -0.04619,-0.291189 -0.118499,-0.63124 -0.268568,-1.263041 -0.317423,-1.544016 -0.385833,-2.218999 -0.237893,-2.347193 0.0072,-4.833335 0.713509,-7.236354 0.29614,-1.007603 0.589026,-1.786954 1.282669,-3.413125 0.521065,-1.221576 0.710017,-1.684272 0.934961,-2.289469 0.953426,-2.565146 1.008755,-4.368686 0.184536,-6.015048 -0.643213,-1.284801 -1.84213,-2.532282 -3.816147,-3.970726 -0.357362,-0.260406 -1.081545,-0.760542 -2.387913,-1.64914 -2.845307,-1.93539 -4.0043188,-2.980825 -5.0673068,-4.570735 -0.961911,-1.438726 -1.577677,-3.157756 -1.819419,-5.079257 -0.02197,-0.174625 -0.0781,-0.7520782 -0.124738,-1.2832292 -0.07358,-0.838013 -0.08495,-1.081199 -0.08595,-1.838854 -9e-4,-0.698182 0.0082,-0.939392 0.04571,-1.203855 0.24722,-1.744726 0.915857,-2.774546 1.970379,-3.034733 0.121373,-0.02995 0.291782,-0.04396 0.535251,-0.04402 0.438462,-1e-4 0.684181,0.05689 1.071563,0.248544 0.3252998,0.160937 0.5490898,0.327314 0.8158948,0.606575 0.264348,0.27669 0.46935,0.591442 0.759212,1.165663 0.2108,0.417598 0.253035,0.48256 0.427424,0.65743 0.231228,0.231865 0.607372,0.488775 0.949538,0.648544 0.50316,0.234942 0.875696,0.352524 2.524806,0.796894 0.305594,0.08235 1.031875,0.296587 1.613958,0.476093 0.582083,0.179507 1.469099,0.451931 1.971146,0.605389 1.999213,0.611088 3.216939,1.06206 4.299479,1.592269 1.954319,0.9571912 3.333351,2.1705922 4.200925,3.6963632 l 0.116642,0.205118 0.213439,-0.258035 c 0.244848,-0.296004 0.800259,-0.846466 1.091398,-1.081674 1.166479,-0.942383 2.626641,-1.563286 4.312708,-1.833887 0.622528,-0.09991 1.094317,-0.137667 1.905794,-0.152512 1.145649,-0.02096 1.944317,0.03669 3.346185,0.241529 0.34925,0.05103 1.075531,0.153196 1.613959,0.227031 0.538427,0.07383 1.324239,0.18694 1.746249,0.251345 1.221479,0.186416 1.460926,0.209652 2.156355,0.209259 0.68694,-4e-4 0.943411,-0.03672 1.377495,-0.195141 0.362645,-0.13235 0.491225,-0.22929 0.854053,-0.643902 0.502701,-0.5744442 0.840309,-0.8545572 1.300639,-1.0791342 0.335489,-0.163672 0.611177,-0.235129 0.978958,-0.253743 0.788763,-0.03992 1.541222,0.288653 1.98663,0.8674942 0.596966,0.775802 0.695034,1.867152 0.304445,3.388015 -0.267322,1.040885 -0.793737,2.308014 -1.284269,3.091347 -1.336675,2.13454 -3.110045,3.728207 -5.576781,5.011659 -1.287235,0.669755 -2.510677,1.158906 -5.695858,2.277303 -1.624266,0.570322 -2.173938,0.789241 -3.021642,1.203441 -1.498764,0.732316 -2.632786,1.530564 -3.632628,2.557034 -1.893398,1.943825 -2.753453,4.252076 -2.565112,6.884355 0.15798,2.207942 0.991087,4.617005 2.42643,7.016416 0.285147,0.476668 0.909643,1.429817 0.969182,1.47923 0.02429,0.02016 0.09131,0.0035 0.243131,-0.06044 0.413354,-0.174083 1.531099,-0.601771 2.213399,-0.846926 2.552697,-0.917205 4.706016,-1.410666 6.776841,-1.553006 0.592727,-0.04074 2.09619,-0.01751 2.60967,0.04033 3.422645,0.385506 6.296049,1.783416 9.176456,4.464349 0.550148,0.512046 0.728282,0.866553 0.728919,1.450634 3e-4,0.298098 -0.05698,0.54715 -0.183194,0.796229 l -0.06227,0.122878 0.33188,0.312134 c 0.365855,0.344088 0.494355,0.499465 0.616042,0.744887 0.111411,0.224695 0.159922,0.451929 0.159922,0.74908 0,0.524867 -0.17572,0.925494 -0.566113,1.290688 -0.418459,0.391448 -1.083058,0.549135 -1.629939,0.386731 -0.334229,-0.09926 -0.512125,-0.219393 -1.050107,-0.709155 -1.349079,-1.228156 -2.934296,-2.033008 -4.664099,-2.368076 -0.695283,-0.134676 -1.278885,-0.187042 -2.088711,-0.187415 -2.584265,-0.0012 -5.521745,0.741815 -9.883684,2.499968 -0.975286,0.393105 -1.724113,0.70644 -3.889375,1.62745 -0.814917,0.34663 -1.729955,0.733001 -2.033421,0.858604 -4.240633,1.755183 -6.966839,2.561416 -9.674392,2.861054 -0.453067,0.05014 -2.195936,0.07306 -2.672292,0.03514 z m 2.368021,-1.759538 c 2.301214,-0.215257 4.870061,-0.94388 8.479896,-2.405224 0.880981,-0.356639 1.506445,-0.618593 3.254375,-1.362971 3.326381,-1.416588 4.626676,-1.938592 6.270625,-2.517349 4.407484,-1.551671 7.812751,-1.94499 10.733177,-1.239716 1.434423,0.346405 2.771619,0.971597 3.971041,1.856615 0.134607,0.09932 0.24474,0.175734 0.24474,0.169802 0,-0.01873 -0.582806,-0.475689 -0.898393,-0.704392 -2.485295,-1.801077 -5.162177,-2.657981 -8.070982,-2.583622 -1.865932,0.0477 -3.732496,0.414785 -6.072187,1.194176 -1.488824,0.495953 -2.684648,0.968904 -5.688542,2.249828 -2.732317,1.16512 -5.340884,2.230774 -6.932083,2.831899 -4.233288,1.599264 -7.342283,2.11168 -9.935104,1.637477 -1.638043,-0.299582 -3.044861,-1.017195 -4.219148,-2.152173 -0.255279,-0.246735 -0.285299,-0.270103 -0.155106,-0.12074 0.402824,0.462134 1.018223,1.016918 1.548482,1.395957 1.460466,1.043975 3.362208,1.666015 5.47959,1.792317 0.484653,0.02891 1.450052,0.0086 1.989619,-0.04188 z m 0.635,-3.214946 c 1.598108,-0.09854 3.270579,-0.434859 5.079043,-1.021356 1.339138,-0.434289 2.580801,-0.930391 5.319082,-2.125207 1.388904,-0.606033 2.148467,-0.927436 2.950104,-1.248315 3.627602,-1.452054 6.745867,-2.259563 9.477042,-2.454187 0.498147,-0.0355 1.758592,-0.03571 2.218867,-4e-4 1.346652,0.103391 2.503569,0.368189 3.729299,0.853572 0.554241,0.219475 1.490975,0.690288 2.434167,1.223436 0.429286,0.242658 0.899583,0.499775 1.045104,0.571368 l 0.264583,0.13017 -0.211666,-0.201459 c -1.6256,-1.547215 -3.513167,-2.725674 -5.398992,-3.370731 -2.488378,-0.851162 -5.165593,-0.880226 -8.332883,-0.09046 -1.656736,0.413107 -3.685778,1.130342 -6.151562,2.174478 l -0.436563,0.184861 -0.04727,-0.05675 c -0.450818,-0.541195 -1.441246,-1.969511 -1.901555,-2.742235 -1.478544,-2.482046 -2.320096,-4.827191 -2.606246,-7.262812 -0.0664,-0.565142 -0.06638,-1.960293 2.4e-5,-2.500313 0.209748,-1.705671 0.744606,-3.147729 1.697715,-4.577291 1.190654,-1.785853 2.913353,-3.245065 5.185664,-4.392512 0.976955,-0.493334 1.71492,-0.791713 3.704166,-1.497695 3.350956,-1.189255 4.363553,-1.605235 5.672304,-2.330223 1.947746,-1.078963 3.469714,-2.511647 4.547931,-4.281133 0.425061,-0.697574 0.94117,-2.093123 1.120381,-3.029479 0.07721,-0.403427 0.08284,-0.876464 0.01298,-1.090567 -0.10264,-0.31455 -0.313418,-0.458609 -0.643694,-0.439946 -0.310187,0.01753 -0.5954,0.202063 -0.975144,0.63093 -0.461684,0.521406 -0.586052,0.646284 -0.761687,0.7648 -1.136661,0.767012 -2.873904,0.932633 -5.692233,0.542675 -0.261937,-0.03624 -1.089422,-0.166281 -1.838854,-0.288973 -2.152483,-0.352392 -2.947379,-0.435277 -4.180416,-0.435902 -3.361695,-0.0017 -5.613318,1.070081 -6.872118,3.271167 -0.342125,0.59823 -0.563552,1.146027 -0.907722,2.245657 -0.104622,0.334269 -0.233495,0.71492 -0.286388,0.845888 l -0.09617,0.238125 -0.01592,-0.886354 c -0.01632,-0.90896 -0.05288,-1.345655 -0.159488,-1.905 -0.356992,-1.873134 -1.219388,-3.160888 -2.741642,-4.093891 -0.624821,-0.382959 -1.556266,-0.790206 -2.546596,-1.113424 -0.68163,-0.222467 -1.09592,-0.341551 -2.778125,-0.7985492 -2.309813,-0.627498 -3.438899,-0.978309 -4.481452,-1.392403 -1.209839,-0.480539 -2.127598,-0.970562 -2.908139,-1.552755 -0.554231,-0.413391 -0.864703,-0.717343 -1.4646308,-1.433874 -0.476211,-0.568766 -0.755008,-0.780521 -1.027641,-0.780521 -0.308886,0 -0.493979,0.24843 -0.650039,0.872472 -0.233937,0.935455 -0.249463,1.529997 -0.09122,3.493153 0.09728,1.2068972 0.153311,1.5923992 0.344592,2.3709952 0.578956,2.356595 1.7004978,4.00854 3.8623838,5.688994 0.531451,0.413102 1.222284,0.902436 2.460625,1.742924 1.716736,1.165186 2.38687,1.64541 3.135313,2.2468 2.160527,1.736024 3.402102,3.47146 3.821549,5.341644 0.110842,0.494209 0.14909,0.817242 0.165555,1.398256 0.02466,0.870255 -0.06063,1.615207 -0.294867,2.575491 -0.27885,1.143188 -0.617779,2.070601 -1.577729,4.317154 -0.558001,1.30588 -0.69446,1.649637 -0.927738,2.337117 -0.472792,1.393344 -0.758529,2.709101 -0.91358,4.206875 -0.03408,0.329226 -0.04548,0.690266 -0.04635,1.468437 -0.0012,1.077442 0.02683,1.524961 0.143388,2.288646 0.106445,0.697445 0.551641,2.733644 0.804099,3.677709 0.06421,0.240109 0.111117,0.442407 0.104243,0.44955 -0.02605,0.02707 -1.04802,0.05329 -1.529925,0.03926 -1.307758,-0.03808 -2.408661,-0.163505 -3.598333,-0.409953 C 10.68256,48.207602 7.2390352,46.515931 4.4616962,44.177559 l -0.378628,-0.318783 0.463021,0.468381 c 3.252418,3.290083 6.9178988,5.29359 10.9405198,5.979951 1.437297,0.24524 2.876778,0.317804 4.418542,0.22274 z"
       id="path536" />
  </g>
</svg>
